<?xml version="1.0" encoding="UTF-8"?>
<!-- Generator: Adobe Illustrator 28.0.0, SVG Export Plug-In . SVG Version: 6.00 Build 0)  -->
<svg xmlns="http://www.w3.org/2000/svg" xmlns:xlink="http://www.w3.org/1999/xlink" version="1.1" id="Layer_1" x="0px" y="0px" viewBox="0 0 744.9 99" style="enable-background:new 0 0 744.9 99;" xml:space="preserve">
<style type="text/css">
	.st0{fill:#008855;}
	.st1{fill:#FFFFFF;}
</style>
<g>
	<rect x="133.9" y="1" class="st0" width="98.2" height="96.5"></rect>
	<path d="M132.9,98.5h100.2V0H132.9V98.5z M134.9,18.2c4,17.6,17.2,31.6,34.6,36.6h-34.6V18.2z M231.1,18.7v36.1h-34.5   C213.8,49.8,227,36.1,231.1,18.7 M134.9,66.3h42.4v30.1h-42.4V66.3z M188.9,66.3h42.2v30.1h-42.2V66.3z"></path>
	<polygon class="st1" points="231.1,1.9 135,1.9 135,10.5 178.7,10.5 178.7,46.2 187.3,46.2 187.3,10.5 231.1,10.5  "></polygon>
</g>
<path class="st1" d="M276,28.2c0,6.7-5.3,10.6-14,10.6c-5.1,0-10.7-0.2-16.8-0.4v-37c6.1-0.2,11.4-0.3,16.1-0.3  c8.3,0,13.3,3.6,13.3,9.9c0.1,4-2.5,7.6-6.4,8.8C272.9,20.7,276,24.1,276,28.2 M254.4,8.5v8.2h6.5c3.1,0,5.2-1.7,5.2-4.3  s-2-3.9-5.8-3.9H254.4z M267.1,26.9c0-2.4-2.1-3.8-5.3-3.8h-7.4V31c0.6,0,1.6,0.1,3.2,0.1c1.6,0.1,2.7,0.1,3.3,0.1  C265,31.2,267.1,29.8,267.1,26.9"></path>
<path class="st1" d="M290.4,38.2h-10L296.9,1h8.5l16.5,37.2h-10l-2.6-6.1h-16.4L290.4,38.2z M296.1,24.3h10.2L301.2,12L296.1,24.3z"></path>
<polygon class="st1" points="363.6,38 355.3,38 338.1,16.5 338.1,38 328.9,38 328.9,1 337.4,1 354.5,22.7 354.5,1 363.6,1 "></polygon>
<polygon class="st1" points="382.8,38 373.6,38 373.6,1 382.8,1 382.8,16.6 384.6,16.6 396.7,1 407.8,1 394.3,18.2 408.6,38   397.4,38 388.5,25.5 382.8,25.5 "></polygon>
<path class="st1" d="M447.7,1c-10.7,0-19.3,8.6-19.3,19.3s8.6,19.3,19.3,19.3c10.7,0,19.3-8.6,19.3-19.3l0,0  C467,9.6,458.3,1,447.7,1 M447.7,30.7c-5.7,0-10.4-4.7-10.4-10.4s4.6-10.4,10.4-10.4c5.7,0,10.4,4.7,10.4,10.4  S453.4,30.7,447.7,30.7"></path>
<polygon class="st1" points="499.6,17.1 499.6,25.4 484.1,25.4 484.1,38 474.9,38 474.9,1 502.1,1 502.1,9.1 484.1,9.1 484.1,17.1   "></polygon>
<path class="st1" d="M532.5,38.2h-10L539,1h8.5l16.4,37.2h-10l-2.6-6.1h-16.4L532.5,38.2z M538.2,24.3h10.2L543.2,12L538.2,24.3z"></path>
<polygon class="st1" points="595.7,17.1 595.7,25.4 580.1,25.4 580.1,38 571,38 571,1 598.1,1 598.1,9.1 580.1,9.1 580.1,17.1 "></polygon>
<path class="st1" d="M618.3,27.7h-3.9v10.6h-9.1v-37c5.1-0.2,10-0.3,14.9-0.3c9.7,0,15.6,4.7,15.6,13.2c0.1,4.6-2.4,9-6.4,11.2  l8.9,12.9h-10.9l-6.8-10.6C620.6,27.7,618.3,27.7,618.3,27.7z M620.3,20c3.8,0,6.3-2.3,6.3-5.7c0-3.6-2.2-5.4-6.6-5.4  c-0.5,0-1.5,0-2.7,0.1h-2.8v11H620.3z"></path>
<rect x="644.9" y="1" class="st1" width="9.2" height="37"></rect>
<path class="st1" d="M695.1,11.1c-3.6-0.8-7.2-1.3-10.9-1.5c-7.6,0-12,4.3-12,10.5c-0.1,3,1,5.8,3.1,7.9c2.3,2.1,5.3,3.1,8.4,3  c3.8-0.1,7.6-0.6,11.4-1.5l1.5,8c-4.4,1.3-9,1.9-13.5,2c-6.2,0-11.2-1.8-15-5.3s-5.7-8.2-5.7-14s1.9-10.4,5.7-13.9s8.8-5.3,15-5.3  c4.6,0,9.1,0.6,13.5,1.8L695.1,11.1z"></path>
<path class="st1" d="M712.3,38.2h-10L718.8,1h8.5l16.5,37.2h-10l-2.6-6.1h-16.4L712.3,38.2z M718,24.3h10.2L723,12L718,24.3z"></path>
<path class="st1" d="M736.8,57.6c-9.3-9.3-24.3-9.3-33.5,0c-9.3,9.3-9.3,24.3,0,33.5s24.3,9.3,33.5,0l0,0  C746.1,81.8,746.1,66.8,736.8,57.6 M733.4,84.6c-7.4,7.4-19.4,7.4-26.8,0c-7.4-7.4-7.4-19.4,0-26.8s19.4-7.4,26.8,0  C740.9,65.2,740.9,77.2,733.4,84.6C733.5,84.6,733.5,84.6,733.4,84.6"></path>
<g>
	<polygon class="st1" points="726.5,57.4 713.1,57.4 707.7,63.6 711,68.9 717.3,70.1 722.1,86.2 731.8,66.3  "></polygon>
	<polygon class="st1" points="728.3,78.5 726.3,82 728.8,81.5 729.7,77.7  "></polygon>
</g>
<path class="st1" d="M444.8,79.9c0,3.7-2.8,5.8-7.7,5.8c-2.8,0-5.8-0.1-8.9-0.3V65.3c3.4-0.1,6.2-0.1,8.4-0.1c4.6,0,7.2,1.9,7.2,5.4  c0,2.2-1.5,4.2-3.7,4.7C443.1,75.7,444.8,77.6,444.8,79.9 M434.4,68.8h-1.9v4.9h4.2c1.9,0,3.2-1,3.2-2.5s-1.2-2.3-3.7-2.3  C435.8,68.8,435.3,68.8,434.4,68.8 M440.6,79.4c0-1.4-1.3-2.3-3.3-2.3h-4.8v4.7c2,0.1,3.3,0.1,4.1,0.1  C439.3,81.9,440.6,81.1,440.6,79.4"></path>
<polygon class="st1" points="464.6,85.4 461,85.4 455.9,74.7 455.1,85.4 451,85.4 452.1,65.3 456.1,65.3 462.8,80.1 469.5,65.3   473.5,65.3 474.6,85.4 470.4,85.4 469.7,74.7 "></polygon>
<path class="st1" d="M498.1,69.7c-1.9-0.4-3.8-0.7-5.8-0.8c-1.9-0.1-3.9,0.5-5.4,1.7c-1.2,1.2-1.9,2.8-1.9,4.6  c-0.1,1.8,0.6,3.5,1.9,4.8c1.4,1.2,3.2,1.9,5,1.8c2.1-0.1,4.1-0.4,6.1-0.9l0.7,3.8c-2.3,0.7-4.7,1.1-7.1,1.2c-3,0.1-5.9-0.9-8.1-2.9  c-2.1-2-3.2-4.8-3.1-7.6c-0.1-2.8,1-5.6,3.1-7.6c2.2-2,5.1-3,8.1-2.9c2.4,0,4.8,0.3,7.1,0.9L498.1,69.7z"></path>
<polygon class="st1" points="519.2,73.4 519.2,77.3 509.9,77.3 509.9,81.5 520.5,81.5 520.5,85.4 505.6,85.4 505.6,65.3 520.5,65.3   520.5,69.1 509.9,69.1 509.9,73.4 "></polygon>
<path class="st1" d="M556.5,83.6c-2.9,1.3-6.1,2.1-9.3,2.2c-2.9,0.1-5.7-0.9-7.8-2.9c-2-2-3.1-4.8-3-7.7c-0.1-2.8,1-5.6,3.1-7.5  c2.2-2,5.2-3,8.2-2.9c2.4,0,4.7,0.3,7,0.9l-0.8,3.9c-1.9-0.4-3.9-0.6-5.9-0.7c-1.9-0.1-3.7,0.5-5.2,1.7c-1.3,1.2-2,2.8-2,4.6  c-0.1,1.7,0.6,3.4,1.7,4.7c1.2,1.2,2.9,1.8,4.6,1.7c1.8,0,3.6-0.3,5.4-0.8v-3.5h-6.8v-3.8h10.8V83.6z"></path>
<path class="st1" d="M570,79.2h-2.4v6.1h-4.3v-20c3.1-0.1,5.7-0.2,7.7-0.2c5.1,0,8.2,2.5,8.2,7c0,2.6-1.5,4.9-3.8,6.1l5.1,7.2h-5.2  l-4.1-6.1L570,79.2z M571.5,75.5c1.9,0.1,3.5-1.2,3.7-3.1c0-0.1,0-0.2,0-0.3c0-2.2-1.5-3.2-4-3.2c-1.6,0-2.7,0-3.5,0v6.6H571.5z"></path>
<path class="st1" d="M595.9,64.8c2.9-0.1,5.7,0.9,7.8,2.9c2,2,3.1,4.8,3,7.6c0.1,2.8-1,5.6-3,7.6c-4.5,3.9-11.1,3.9-15.5,0  c-2-2-3.1-4.8-3-7.6c-0.1-2.8,1-5.6,3-7.6C590.2,65.8,593,64.7,595.9,64.8 M595.9,81.8c1.7,0.1,3.3-0.6,4.5-1.8  c1.2-1.3,1.8-3,1.8-4.7c0.1-1.7-0.6-3.4-1.8-4.7c-2.5-2.4-6.5-2.4-9.1,0c-1.2,1.2-1.9,2.9-1.8,4.7c-0.1,1.7,0.6,3.4,1.8,4.7  C592.6,81.2,594.2,81.9,595.9,81.8"></path>
<path class="st1" d="M631.2,76.5c0.3,5.1-3.6,9.4-8.7,9.7c-5.1,0.3-9.4-3.6-9.7-8.7c0-0.3,0-0.7,0-1V65.3h4.3v11.3  c0,3.3,1.9,5.3,4.9,5.3s4.9-2,4.9-5.3V65.3h4.3V76.5L631.2,76.5z"></path>
<path class="st1" d="M651.8,67c1.6,1.3,2.4,3.2,2.3,5.2c0.1,2-0.8,4-2.4,5.3c-1.7,1.4-3.9,2.1-6.1,2h-3.2v5.9h-4.3V65.3  c2.9-0.2,5.4-0.3,7.4-0.3C647.8,64.9,650,65.6,651.8,67 M646,75.6c2.3,0,3.9-1.4,3.9-3.5s-1.6-3.3-3.9-3.3c-1.6,0-2.8,0-3.5,0.1v6.7  L646,75.6z"></path>

<g>
	<path class="st1" d="M88.6,21.2c-9.2,0-16.3,7-16.4,16.1c-0.1,9,7.2,16.3,16.3,16.3s16.3-7.3,16.3-16.3   C104.8,28.4,97.6,21.2,88.6,21.2z M88.6,50.4c-7.1,0.1-13-5.9-13-13.1c0-7.1,5.9-12.9,13-12.9s12.9,5.9,12.9,13   S95.7,50.3,88.6,50.4z M88.6,21.2c-9.2,0-16.3,7-16.4,16.1c-0.1,9,7.2,16.3,16.3,16.3s16.3-7.3,16.3-16.3   C104.8,28.4,97.6,21.2,88.6,21.2z M88.6,50.4c-7.1,0.1-13-5.9-13-13.1c0-7.1,5.9-12.9,13-12.9s12.9,5.9,12.9,13   S95.7,50.3,88.6,50.4z M88.2,13C74.9,13.3,64,24,64,37.4c0,13.5,11,24.4,24.6,24.4s24.6-11,24.4-24.5   C112.8,22.2,100.2,12.8,88.2,13z M89.9,58.5c-11.7,0.9-21.7-8.1-22.5-20.4C66.6,27.3,75.9,17,87,16.3c11.4-0.7,21.6,8.1,22.6,18.8   C110.6,47,102.2,57.5,89.9,58.5z M88.6,21.2c-9.2,0-16.3,7-16.4,16.1c-0.1,9,7.2,16.3,16.3,16.3s16.3-7.3,16.3-16.3   C104.8,28.4,97.6,21.2,88.6,21.2z M88.6,50.4c-7.1,0.1-13-5.9-13-13.1c0-7.1,5.9-12.9,13-12.9s12.9,5.9,12.9,13   S95.7,50.3,88.6,50.4z M88.2,13C74.9,13.3,64,24,64,37.4c0,13.5,11,24.4,24.6,24.4s24.6-11,24.4-24.5   C112.8,22.2,100.2,12.8,88.2,13z M89.9,58.5c-11.7,0.9-21.7-8.1-22.5-20.4C66.6,27.3,75.9,17,87,16.3c11.4-0.7,21.6,8.1,22.6,18.8   C110.6,47,102.2,57.5,89.9,58.5z M88.6,21.2c-9.2,0-16.3,7-16.4,16.1c-0.1,9,7.2,16.3,16.3,16.3s16.3-7.3,16.3-16.3   C104.8,28.4,97.6,21.2,88.6,21.2z M88.6,50.4c-7.1,0.1-13-5.9-13-13.1c0-7.1,5.9-12.9,13-12.9s12.9,5.9,12.9,13   S95.7,50.3,88.6,50.4z M89.9,5.8C72,5.2,57,19.2,56.8,37.2C56.7,54.3,70.1,68.5,87.2,69c18.4,0.6,32.7-13.3,33-31.4   C120.5,20.8,106.4,6.3,89.9,5.8z M88.5,65.7c-15.6,0-28.4-12.7-28.4-28.3S73,9,88.6,9c15.6,0.1,28.4,13,28.3,28.5   C116.9,53.1,104.1,65.7,88.5,65.7z M88.2,13C74.9,13.3,64,24,64,37.4c0,13.5,11,24.4,24.6,24.4s24.6-11,24.4-24.5   C112.8,22.2,100.2,12.8,88.2,13z M89.9,58.5c-11.7,0.9-21.7-8.1-22.5-20.4C66.6,27.3,75.9,17,87,16.3c11.4-0.7,21.6,8.1,22.6,18.8   C110.6,47,102.2,57.5,89.9,58.5z M88.6,21.2c-9.2,0-16.3,7-16.4,16.1c-0.1,9,7.2,16.3,16.3,16.3s16.3-7.3,16.3-16.3   C104.8,28.4,97.6,21.2,88.6,21.2z M88.6,50.4c-7.1,0.1-13-5.9-13-13.1c0-7.1,5.9-12.9,13-12.9s12.9,5.9,12.9,13   S95.7,50.3,88.6,50.4z M88.6,21.2c-9.2,0-16.3,7-16.4,16.1c-0.1,9,7.2,16.3,16.3,16.3s16.3-7.3,16.3-16.3   C104.8,28.4,97.6,21.2,88.6,21.2z M88.6,50.4c-7.1,0.1-13-5.9-13-13.1c0-7.1,5.9-12.9,13-12.9s12.9,5.9,12.9,13   S95.7,50.3,88.6,50.4z M88.6,21.2c-9.2,0-16.3,7-16.4,16.1c-0.1,9,7.2,16.3,16.3,16.3s16.3-7.3,16.3-16.3   C104.8,28.4,97.6,21.2,88.6,21.2z M88.6,50.4c-7.1,0.1-13-5.9-13-13.1c0-7.1,5.9-12.9,13-12.9s12.9,5.9,12.9,13   S95.7,50.3,88.6,50.4z M7.9,68.2c0.1-1.2,0.4-2.4,1-3.4c7.6-12.4,15.3-24.7,22.9-37c3.2-5.2,6.4-10.4,9.7-15.7   c-1-0.6-1.8-1.1-2.8-1.7c-0.3,0.5-0.6,0.9-0.9,1.3c-10.3,16.7-20.7,33.4-31.1,50c-1.6,2.5-2.4,4.9-2.2,7.8   c0.2,3.4,0.1,6.9,0.1,10.6H7c7.3,0,14.7,0,22,0c2.5,0,5.1,0.2,7.6,0.3c0.1,2.5,0.2,5,0.2,7.5c0,2,0,4,0,6h3v-17h-32   C7.8,73.9,7.7,71,7.9,68.2z M43.5,2.6V98c0.6,0,1.1,0.1,1.5,0.1c0.5,0,0.9-0.1,1.4-0.1V2.6H43.5z M37.5,70.5c-1.5,0-3.1,0-4.6,0   c-5.1,0-10.2,0-15.2,0c-0.6,0-1.6-0.5-1.6-0.9c-0.2-2.1-0.3-4.1,1-6.1c5.6-8.5,11.1-17.1,16.6-25.7c2.3-3.6,4.7-7.3,7.1-11   c-1-0.6-1.8-1.2-2.7-1.7c-0.3,0.3-0.4,0.4-0.5,0.5c-8.1,12.6-16.3,25.3-24.4,37.9c-0.2,0.3-0.5,0.6-0.5,1c0,3.1,0,6.2,0,9.3h27.1   C40.4,70.7,40.3,70.5,37.5,70.5z M40,36.1c0-0.4-0.1-0.8-0.1-1.6c-7.4,11.1-14.6,21.8-22,32.7c0.9,0.1,1.4,0.2,2,0.2   c6,0,12.1,0,18.2,0c1.6,0,2.1-0.5,2.1-2.1C40,55.6,40,45.8,40,36.1z M36.6,64H24.1c4.2-6.2,8.2-12.2,12.2-18.1   c0.1,0,0.2,0.1,0.3,0.1V64z M64.2,66.1c-0.1-0.6,0-1.2,0-2c-3,0-5.8,0-8.6,0c-2.4,0-2.4,0-2.4-2.4V5.9H50v30.8c0,9.6,0,19.3,0,28.9   c0,1-0.1,1.8,1.3,1.8c3.9,0,7.7,0,11.6,0C63.9,67.4,64.3,67.1,64.2,66.1z M62.7,77.1c-3.8-0.1-7.6,0-11.4,0c-1,0-1.4,0.4-1.4,1.4   c0,3.2,0,6.5,0,9.7v6.4h3.2c0-4.3,0-8.4,0-12.5c0-1.3,0.4-1.7,1.7-1.7c3,0.1,6,0,9.4,0C63.7,79.1,65.4,77.2,62.7,77.1z M50.1,70.8   v3H64v-3H50.1z"></path>
	<path class="st1" d="M89.9,5.8C72,5.2,57,19.2,56.8,37.2C56.7,54.3,70.1,68.5,87.2,69c18.4,0.6,32.7-13.3,33-31.4   C120.5,20.8,106.4,6.3,89.9,5.8z M88.5,65.7c-15.6,0-28.4-12.7-28.4-28.3S73,9,88.6,9c15.6,0.1,28.4,13,28.3,28.5   C116.9,53.1,104.1,65.7,88.5,65.7z"></path>
	<path class="st1" d="M7.8,76.9c10.8,0,21.3,0,32,0c0,5.7,0,11.3,0,17c-0.9,0-1.8,0-3,0c0-2,0-4,0-6c0-2.5-0.1-5-0.2-7.5   c-2.5-0.1-5.1-0.3-7.6-0.3c-7.3,0-14.7,0-22,0c-0.7,0-1.4,0-2.4,0c0-3.6,0.2-7.1,0-10.6c-0.2-2.9,0.7-5.4,2.2-7.8   C17.2,45,27.6,28.3,37.9,11.6c0.3-0.4,0.5-0.8,0.9-1.3c0.9,0.6,1.8,1.1,2.8,1.7c-3.3,5.3-6.5,10.5-9.7,15.7   c-7.7,12.3-15.3,24.7-23,37c-0.6,1-0.9,2.3-1,3.4C7.7,71,7.8,73.9,7.8,76.9z"></path>
	<path class="st1" d="M43.5,2.6c1,0,1.9,0,2.9,0c0,31.7,0,63.4,0,95.3c-0.5,0-0.9,0.1-1.4,0.1s-1,0-1.5-0.1   C43.5,66.1,43.5,34.4,43.5,2.6z"></path>
	<path class="st1" d="M39.8,73.7c-9,0-17.9,0-27.1,0c0-3.1,0-6.2,0-9.3c0-0.3,0.3-0.7,0.5-1c8.1-12.6,16.3-25.3,24.4-37.9   c0.1-0.1,0.2-0.3,0.5-0.5c0.8,0.5,1.7,1.1,2.7,1.7c-2.4,3.7-4.7,7.4-7.1,11C28.1,46.4,22.7,55,17,63.5c-1.3,2-1.2,4-1,6.1   c0,0.3,1,0.8,1.6,0.9c5.1,0.1,10.2,0,15.2,0c1.5,0,3.1,0,4.6,0C40.3,70.5,40.4,70.7,39.8,73.7z"></path>
	<path class="st1" d="M40,36.1c0-0.4-0.1-0.8-0.1-1.6c-7.4,11.1-14.6,21.8-22,32.7c0.9,0.1,1.4,0.2,2,0.2c6,0,12.1,0,18.2,0   c1.6,0,2.1-0.5,2.1-2.1C40,55.6,40,45.8,40,36.1z M36.6,64H24.1c4.2-6.2,8.2-12.2,12.2-18.1c0.1,0,0.2,0.1,0.3,0.1V64z"></path>
	<path class="st1" d="M50,5.9c1.1,0,2,0,3.2,0c0,0.8,0,1.6,0,2.3c0,17.8,0,35.6,0,53.5c0,2.4,0,2.4,2.4,2.4c2.8,0,5.6,0,8.6,0   c0,0.8,0,1.4,0,2c0.1,1-0.3,1.3-1.3,1.3c-3.9,0-7.7,0-11.6,0c-1.4,0-1.4-0.8-1.3-1.8c0-9.6,0-19.3,0-28.9c0-9.5,0-18.9,0-28.4   C50,7.6,50,6.9,50,5.9z"></path>
	<path class="st1" d="M64.3,80.4c-3.4,0-6.4,0.1-9.4,0c-1.3,0-1.7,0.4-1.7,1.7c0.1,4.1,0,8.3,0,12.5c-1.1,0-2,0-3.2,0   c0-2.1,0-4.3,0-6.4c0-3.2,0-6.5,0-9.7c0-1,0.4-1.4,1.4-1.4c3.8,0,7.6,0,11.4,0C65.4,77.2,63.7,79.1,64.3,80.4z"></path>
	<path class="st1" d="M50.1,73.8c0-1,0-1.9,0-3c4.6,0,9.2,0,13.9,0c0,1,0,1.9,0,3C59.5,73.8,54.9,73.8,50.1,73.8z"></path>
	<path class="st1" d="M88.2,13C74.9,13.3,64,24,64,37.4c0,13.5,11,24.4,24.6,24.4s24.6-11,24.4-24.5C112.8,22.2,100.2,12.8,88.2,13z    M89.9,58.5c-11.7,0.9-21.7-8.1-22.5-20.4C66.6,27.3,75.9,17,87,16.3c11.4-0.7,21.6,8.1,22.6,18.8C110.6,47,102.2,57.5,89.9,58.5z"></path>
	<path class="st1" d="M88.6,21.2c-9.2,0-16.3,7-16.4,16.1c-0.1,9,7.2,16.3,16.3,16.3s16.3-7.3,16.3-16.3   C104.8,28.4,97.6,21.2,88.6,21.2z M88.6,50.4c-7.1,0.1-13-5.9-13-13.1c0-7.1,5.9-12.9,13-12.9s12.9,5.9,12.9,13   S95.7,50.3,88.6,50.4z"></path>
</g>
<g>
	<path class="st1" d="M64.3,82.4h3.6l2.3,4.8l2.3-4.8h3.6l-4.3,8.8V95h-3.2l0-3.8L64.3,82.4z"></path>
	<path class="st1" d="M85.1,87.2v3h-4.5v1.7h5.2V95h-8.5V82.4h8.5v3.1h-5.2v1.6H85.1z"></path>
	<path class="st1" d="M90.4,95H87l4.7-12.6h3L99.5,95H96l-0.6-1.7H91L90.4,95z M92,90.2h2.5l-1.2-3.7L92,90.2z"></path>
	<path class="st1" d="M104.9,91.7H104V95h-3.2V82.4c1.5-0.1,3.1-0.1,4.6-0.1c3,0,4.8,1.6,4.8,4.6c0,1.7-0.6,3-1.7,3.8l2.4,4.3h-3.8   l-1.7-3.3H104.9z M105.2,88.7c1,0,1.7-0.7,1.7-1.7c0-1.1-0.6-1.6-1.7-1.6H104v3.3H105.2z"></path>
	<path class="st1" d="M120.7,86.2c-1.7-0.6-3-0.9-3.9-0.9c-0.7,0-1.2,0.2-1.2,0.8c0,0.7,0.7,0.8,2.1,1.1c2.1,0.5,3.8,1.4,3.8,3.9   c0,2.6-1.8,4.1-4.6,4.1c-1.6,0-3.4-0.4-5.2-1.1l0.7-3.1c1.9,0.7,3.2,1.1,4.1,1.1c1,0,1.4-0.4,1.4-0.8c0-0.7-1-0.9-2.2-1.1   c-2.5-0.6-3.7-1.5-3.7-3.8c0-2.7,1.7-4.2,4.6-4.2c1.4,0,3.3,0.3,4.6,0.8L120.7,86.2z"></path>
</g>
</svg>
